<svg xmlns="http://www.w3.org/2000/svg" xmlns:xlink="http://www.w3.org/1999/xlink" width="123.409" height="40.075" viewBox="0 0 123.409 40.075"><defs><style>.a{opacity:0;}.b{fill:#1b325f;}.c{clip-path:url(#a);}.d{fill:#1a8922;}</style><clipPath id="a"><path d="M37.226,41.375H4.286A4.577,4.577,0,0,1-.4,36.937V5.738A4.577,4.577,0,0,1,4.286,1.3H37.2a4.577,4.577,0,0,1,4.686,4.438V36.915A4.545,4.545,0,0,1,37.226,41.375Z" transform="translate(0.4 -1.3)"/></clipPath></defs><g transform="translate(-25)"><g class="a" transform="translate(25 6)"><path class="b" d="M219.166,33.4H226l9.442,27.237h-7.6l-1.657-5.324h-7.241l-1.609,5.324H209.7Zm5.821,16.92-2.414-8.448-2.532,8.448h4.946Z" transform="translate(-209.7 -33.234)"/><path class="b" d="M328,60.637V33.4h18.671v6.531H335.478v4.52h9.134v6.058h-9.134V60.637Z" transform="translate(-300.005 -33.234)"/><path class="b" d="M411.066,33.4H417.9l9.442,27.237h-7.6l-1.656-5.324h-7.241l-1.609,5.324H401.6Zm5.845,16.92-2.437-8.448-2.532,8.448h4.969Z" transform="translate(-356.189 -33.234)"/><path class="b" d="M529.115,58.8a13.062,13.062,0,0,1-3.005,1.112,14.062,14.062,0,0,1-3.36.379,13.175,13.175,0,0,1-5.632-1.16,13.74,13.74,0,0,1-7.123-7.525A13.766,13.766,0,0,1,509,46.473a13.422,13.422,0,0,1,1.041-5.182,13.917,13.917,0,0,1,7.289-7.454,13.542,13.542,0,0,1,5.585-1.136,12.849,12.849,0,0,1,5.632,1.207,14.122,14.122,0,0,1,7.123,7.62,13.617,13.617,0,0,1,.97,5.111,13.465,13.465,0,0,1-.9,4.851,13.275,13.275,0,0,1-2.556,4.165l4.141,4.5h-6.981Zm-6.295-5.159a5.973,5.973,0,0,0,1.42-.142l-4.5-4.922h6.981l1.491,1.657a7.369,7.369,0,0,0,.615-1.846,10.837,10.837,0,0,0,.189-1.964,9.248,9.248,0,0,0-.379-2.674,6.873,6.873,0,0,0-1.16-2.272,5.6,5.6,0,0,0-1.964-1.586,5.937,5.937,0,0,0-2.745-.592,5.793,5.793,0,0,0-2.792.639,5.98,5.98,0,0,0-1.94,1.656,6.728,6.728,0,0,0-1.136,2.3,9.766,9.766,0,0,0-.355,2.627,9.244,9.244,0,0,0,.379,2.674,6.876,6.876,0,0,0,1.16,2.272,5.511,5.511,0,0,0,1.94,1.585A6.139,6.139,0,0,0,522.82,53.643Z" transform="translate(-438.173 -32.7)"/><path class="b" d="M628.993,33.4l4.875,11.785L638.861,33.4H647l-9.395,18.221v9.016h-7.454V51.55L620.9,33.4Z" transform="translate(-523.593 -33.234)"/></g><g transform="translate(65 0)"><g class="c" transform="translate(0 0)"><path class="b" d="M11.55-.178C8.521,2.893,6.557,6.591,4.617,10.334A80.8,80.8,0,0,0-.329,21.765a1.063,1.063,0,0,1-.071.157V0c0-.157.024-.2.213-.2C3.718-.178,7.622-.178,11.55-.178Z" transform="translate(0.4 -0.136)"/><path class="b" d="M23.968,104.886c9.276-.134,18.576,3.026,21.392,16.855H20.3C21.27,116.093,21.744,110.332,23.968,104.886Z" transform="translate(-15.402 -81.666)"/><path class="b" d="M58.58,41.974c-4.141-3.25-8.969-4.079-14.08-4.1A49.779,49.779,0,0,1,50.629,26.8,62.618,62.618,0,0,1,58.58,41.974Z" transform="translate(-33.875 -21.085)"/></g><g class="c" transform="translate(0 0)"><path class="d" d="M113.03-.1V40.289h-5.419c.947-2.107.473-4.236.095-6.365a69.394,69.394,0,0,0-3.644-12.417,95.013,95.013,0,0,0-4.922-10.938A53.517,53.517,0,0,0,92.939.64L92.3-.1Z" transform="translate(-70.363 -0.214)"/></g></g></g></svg>